# Blender v3.1.2 OBJ File: ''
# www.blender.org
o dome_Icosphere.002
v 2.723754 -8.382996 4.407271
v -7.131020 -5.180928 4.407268
v -7.131020 5.180928 4.407268
v 2.723754 8.382996 4.407271
v 8.814409 0.000000 4.407229
v 0.000000 0.000000 9.854820
v 9.427375 -1.454752 2.475033
v 9.372504 -3.045264 -0.000000
v 9.372504 3.045264 0.000000
v 9.427375 1.454752 2.475033
v 1.529617 -9.415512 2.475053
v 0.000000 -9.854819 -0.000000
v 5.792521 -7.972714 0.000000
v 4.296769 -8.516417 2.475058
v -8.482020 -4.364281 2.475046
v -9.372504 -3.045264 -0.000000
v -5.792521 -7.972715 0.000000
v -6.771824 -6.718182 2.475057
v -6.771824 6.718182 2.475057
v -5.792521 7.972714 -0.000000
v -9.372504 3.045264 0.000000
v -8.482020 4.364281 2.475046
v 4.296769 8.516417 2.475058
v 5.792521 7.972715 -0.000000
v 0.000000 9.854819 0.000000
v 1.529617 9.415512 2.475053
v 8.189855 -2.353858 4.950063
v 6.781983 -4.927380 5.181036
v 4.769451 -7.061615 4.950093
v 0.292090 -8.516380 4.950095
v -2.590525 -7.972665 5.181050
v -5.242182 -6.718153 4.950093
v -8.009300 -2.909515 4.950082
v -8.382982 0.000000 5.181033
v -8.009300 2.909515 4.950082
v -5.242182 6.718153 4.950093
v -2.590525 7.972664 5.181050
v 0.292090 8.516380 4.950095
v 4.769451 7.061615 4.950093
v 6.781983 4.927380 5.181036
v 8.189855 2.353857 4.950063
v 0.764799 -2.353851 9.538970
v 1.600970 -4.927363 8.383046
v 2.294414 -7.061601 6.479734
v 7.425033 0.000000 6.479690
v 5.180973 0.000000 8.383019
v 2.475008 0.000000 9.538962
v -2.002311 -1.454747 9.538969
v -4.191479 -3.045252 8.383044
v -6.006973 -4.364270 6.479730
v -2.002311 1.454747 9.538969
v -4.191479 3.045252 8.383044
v -6.006973 4.364270 6.479730
v 0.764799 2.353851 9.538970
v 1.600970 4.927363 8.383046
v 2.294414 7.061601 6.479734
v 3.565477 2.590467 8.814439
v 6.289283 2.590479 7.131047
v 4.407166 5.180956 7.131062
v -1.361909 4.191447 8.814446
v -0.520232 6.781939 7.131070
v -3.565510 5.792451 7.131069
v -4.407173 0.000000 8.814438
v -6.610777 1.600985 7.131055
v -6.610777 -1.600985 7.131055
v -1.361909 -4.191447 8.814446
v -3.565510 -5.792451 7.131069
v -0.520232 -6.781939 7.131070
v 3.565477 -2.590467 8.814439
v 4.407166 -5.180956 7.131063
v 6.289283 -2.590478 7.131047
v 8.492926 4.191472 2.723835
v 7.972740 5.792487 0.000000
v 6.610816 6.781981 2.723847
v -1.361922 9.372478 2.723844
v -3.045302 9.372493 -0.000005
v -4.407224 8.382991 2.723845
v -9.334616 1.600991 2.723832
v -9.854819 -0.000004 0.000006
v -9.334613 -1.600993 2.723839
v -4.407231 -8.382987 2.723841
v -3.045309 -9.372490 -0.000008
v -1.361929 -9.372478 2.723841
v 6.610814 -6.781986 2.723835
v 7.972733 -5.792496 -0.000019
v 8.492925 -4.191483 2.723817
v 3.045309 9.372490 -0.000000
v -7.972731 5.792499 -0.000000
v -7.972731 -5.792499 0.000000
v 3.045309 -9.372490 0.000000
v 9.854820 0.000000 0.000000
vn 0.3427 -0.7583 0.5545
vn -0.6153 -0.5603 0.5545
vn -0.7230 0.4121 0.5545
vn 0.1685 0.8149 0.5545
vn 0.8271 0.0916 0.5545
vn 0.1261 0.0916 0.9878
vn 0.3912 0.0915 0.9158
vn 0.6441 0.0915 0.7594
vn 0.2334 0.1696 0.9575
vn 0.2079 0.3438 0.9158
vn 0.5168 0.1830 0.8363
vn 0.4911 0.3568 0.7947
vn 0.3338 0.4350 0.8363
vn 0.2860 0.5843 0.7594
vn 0.7520 0.1696 0.6369
vn 0.7261 0.3438 0.5955
vn 0.5987 0.4350 0.6726
vn 0.5513 0.5843 0.5955
vn 0.3936 0.6628 0.6369
vn 0.3427 0.7583 0.5545
vn -0.0482 0.1482 0.9878
vn 0.0339 0.4003 0.9158
vn 0.1121 0.6409 0.7594
vn -0.0891 0.2743 0.9575
vn -0.2627 0.3039 0.9158
vn -0.0144 0.5481 0.8363
vn -0.1876 0.5773 0.7947
vn -0.3105 0.4519 0.8363
vn -0.4674 0.4526 0.7594
vn 0.0711 0.7676 0.6369
vn -0.1026 0.7968 0.5955
vn -0.2287 0.7038 0.6726
vn -0.3854 0.7049 0.5955
vn -0.5087 0.5792 0.6369
vn -0.6153 0.5603 0.5545
vn -0.1558 0.0000 0.9878
vn -0.3702 0.1560 0.9158
vn -0.5749 0.3046 0.7594
vn -0.2885 0.0000 0.9575
vn -0.3702 -0.1560 0.9158
vn -0.5257 0.1557 0.8363
vn -0.6071 0.0000 0.7947
vn -0.5257 -0.1557 0.8363
vn -0.5749 -0.3046 0.7594
vn -0.7081 0.3049 0.6369
vn -0.7895 0.1487 0.5955
vn -0.7400 0.0000 0.6726
vn -0.7895 -0.1487 0.5955
vn -0.7081 -0.3049 0.6369
vn -0.7230 -0.4121 0.5545
vn -0.0482 -0.1482 0.9878
vn -0.2627 -0.3039 0.9158
vn -0.4674 -0.4526 0.7594
vn -0.0891 -0.2743 0.9575
vn 0.0339 -0.4003 0.9158
vn -0.3105 -0.4519 0.8363
vn -0.1876 -0.5773 0.7947
vn -0.0144 -0.5481 0.8363
vn 0.1121 -0.6409 0.7594
vn -0.5087 -0.5792 0.6369
vn -0.3854 -0.7049 0.5955
vn -0.2287 -0.7038 0.6726
vn -0.1026 -0.7968 0.5955
vn 0.0711 -0.7676 0.6369
vn 0.1685 -0.8149 0.5545
vn 0.1261 -0.0916 0.9878
vn 0.2079 -0.3438 0.9158
vn 0.2860 -0.5843 0.7594
vn 0.2334 -0.1696 0.9575
vn 0.3912 -0.0915 0.9158
vn 0.3338 -0.4350 0.8363
vn 0.4911 -0.3568 0.7947
vn 0.5168 -0.1830 0.8363
vn 0.6441 -0.0915 0.7594
vn 0.3936 -0.6628 0.6369
vn 0.5513 -0.5843 0.5955
vn 0.5987 -0.4350 0.6726
vn 0.7261 -0.3438 0.5955
vn 0.7520 -0.1696 0.6369
vn 0.8271 -0.0916 0.5545
vn 0.9050 0.1482 0.3987
vn 0.9366 0.3039 0.1745
vn 0.8963 0.2743 0.3485
vn 0.8039 0.4003 0.4399
vn 0.8869 0.4519 0.0962
vn 0.7947 0.5773 0.1876
vn 0.7544 0.5481 0.3611
vn 0.6291 0.6409 0.4399
vn 0.7038 0.7038 0.0962
vn 0.5785 0.7968 0.1745
vn 0.5379 0.7676 0.3485
vn 0.4206 0.8149 0.3987
vn 0.1387 0.9065 0.3987
vn 0.0004 0.9846 0.1745
vn 0.0160 0.9372 0.3485
vn -0.1323 0.8883 0.4399
vn -0.1557 0.9831 0.0962
vn -0.3035 0.9342 0.1876
vn -0.2882 0.8869 0.3611
vn -0.4151 0.7964 0.4399
vn -0.4519 0.8869 0.0962
vn -0.5791 0.7964 0.1745
vn -0.5638 0.7488 0.3485
vn -0.6451 0.6519 0.3987
vn -0.8193 0.4121 0.3987
vn -0.9363 0.3046 0.1745
vn -0.8864 0.3049 0.3485
vn -0.8857 0.1487 0.4399
vn -0.9831 0.1557 0.0962
vn -0.9822 -0.0000 0.1876
vn -0.9325 -0.0000 0.3611
vn -0.8857 -0.1487 0.4399
vn -0.9831 -0.1557 0.0962
vn -0.9363 -0.3046 0.1745
vn -0.8864 -0.3049 0.3485
vn -0.8193 -0.4121 0.3987
vn -0.6451 -0.6519 0.3987
vn -0.5791 -0.7964 0.1745
vn -0.5638 -0.7488 0.3485
vn -0.4151 -0.7964 0.4399
vn -0.4519 -0.8869 0.0962
vn -0.3035 -0.9342 0.1876
vn -0.2882 -0.8869 0.3611
vn -0.1323 -0.8883 0.4399
vn -0.1557 -0.9831 0.0962
vn 0.0004 -0.9846 0.1745
vn 0.0160 -0.9372 0.3485
vn 0.1387 -0.9065 0.3987
vn 0.4206 -0.8149 0.3987
vn 0.5785 -0.7968 0.1745
vn 0.5379 -0.7676 0.3485
vn 0.6291 -0.6409 0.4399
vn 0.7038 -0.7038 0.0962
vn 0.7947 -0.5773 0.1876
vn 0.7544 -0.5481 0.3611
vn 0.8039 -0.4003 0.4399
vn 0.8869 -0.4519 0.0962
vn 0.9366 -0.3039 0.1745
vn 0.8963 -0.2744 0.3485
vn 0.9050 -0.1482 0.3987
vn 0.2945 0.9065 0.3024
vn 0.4526 0.8883 0.0784
vn 0.3045 0.9372 0.1702
vn 0.1560 0.9846 0.0784
vn -0.7711 0.5603 0.3024
vn -0.7049 0.7049 0.0784
vn -0.7972 0.5792 0.1702
vn -0.8883 0.4526 0.0784
vn -0.7711 -0.5603 0.3024
vn -0.8883 -0.4526 0.0784
vn -0.7972 -0.5792 0.1702
vn -0.7049 -0.7049 0.0784
vn 0.2945 -0.9065 0.3024
vn 0.1560 -0.9846 0.0784
vn 0.3045 -0.9372 0.1702
vn 0.4526 -0.8883 0.0784
vn 0.9532 0.0000 0.3024
vn 0.9846 -0.1560 0.0784
vn 0.9854 0.0000 0.1702
vn 0.9846 0.1560 0.0784
s off
f 1//1 29//1 44//1
f 2//2 32//2 50//2
f 3//3 35//3 53//3
f 4//4 38//4 56//4
f 5//5 41//5 45//5
f 47//6 54//6 6//6
f 46//7 57//7 47//7
f 45//8 58//8 46//8
f 47//9 57//9 54//9
f 57//10 55//10 54//10
f 46//11 58//11 57//11
f 58//12 59//12 57//12
f 57//13 59//13 55//13
f 59//14 56//14 55//14
f 45//15 41//15 58//15
f 41//16 40//16 58//16
f 58//17 40//17 59//17
f 40//18 39//18 59//18
f 59//19 39//19 56//19
f 39//20 4//20 56//20
f 54//21 51//21 6//21
f 55//22 60//22 54//22
f 56//23 61//23 55//23
f 54//24 60//24 51//24
f 60//25 52//25 51//25
f 55//26 61//26 60//26
f 61//27 62//27 60//27
f 60//28 62//28 52//28
f 62//29 53//29 52//29
f 56//30 38//30 61//30
f 38//31 37//31 61//31
f 61//32 37//32 62//32
f 37//33 36//33 62//33
f 62//34 36//34 53//34
f 36//35 3//35 53//35
f 51//36 48//36 6//36
f 52//37 63//37 51//37
f 53//38 64//38 52//38
f 51//39 63//39 48//39
f 63//40 49//40 48//40
f 52//41 64//41 63//41
f 64//42 65//42 63//42
f 63//43 65//43 49//43
f 65//44 50//44 49//44
f 53//45 35//45 64//45
f 35//46 34//46 64//46
f 64//47 34//47 65//47
f 34//48 33//48 65//48
f 65//49 33//49 50//49
f 33//50 2//50 50//50
f 48//51 42//51 6//51
f 49//52 66//52 48//52
f 50//53 67//53 49//53
f 48//54 66//54 42//54
f 66//55 43//55 42//55
f 49//56 67//56 66//56
f 67//57 68//57 66//57
f 66//58 68//58 43//58
f 68//59 44//59 43//59
f 50//60 32//60 67//60
f 32//61 31//61 67//61
f 67//62 31//62 68//62
f 31//63 30//63 68//63
f 68//64 30//64 44//64
f 30//65 1//65 44//65
f 42//66 47//66 6//66
f 43//67 69//67 42//67
f 44//68 70//68 43//68
f 42//69 69//69 47//69
f 69//70 46//70 47//70
f 43//71 70//71 69//71
f 70//72 71//72 69//72
f 69//73 71//73 46//73
f 71//74 45//74 46//74
f 44//75 29//75 70//75
f 29//76 28//76 70//76
f 70//77 28//77 71//77
f 28//78 27//78 71//78
f 71//79 27//79 45//79
f 27//80 5//80 45//80
f 10//81 41//81 5//81
f 9//82 72//82 10//82
f 10//83 72//83 41//83
f 72//84 40//84 41//84
f 9//85 73//85 72//85
f 73//86 74//86 72//86
f 72//87 74//87 40//87
f 74//88 39//88 40//88
f 73//89 24//89 74//89
f 24//90 23//90 74//90
f 74//91 23//91 39//91
f 23//92 4//92 39//92
f 26//93 38//93 4//93
f 25//94 75//94 26//94
f 26//95 75//95 38//95
f 75//96 37//96 38//96
f 25//97 76//97 75//97
f 76//98 77//98 75//98
f 75//99 77//99 37//99
f 77//100 36//100 37//100
f 76//101 20//101 77//101
f 20//102 19//102 77//102
f 77//103 19//103 36//103
f 19//104 3//104 36//104
f 22//105 35//105 3//105
f 21//106 78//106 22//106
f 22//107 78//107 35//107
f 78//108 34//108 35//108
f 21//109 79//109 78//109
f 79//110 80//110 78//110
f 78//111 80//111 34//111
f 80//112 33//112 34//112
f 79//113 16//113 80//113
f 16//114 15//114 80//114
f 80//115 15//115 33//115
f 15//116 2//116 33//116
f 18//117 32//117 2//117
f 17//118 81//118 18//118
f 18//119 81//119 32//119
f 81//120 31//120 32//120
f 17//121 82//121 81//121
f 82//122 83//122 81//122
f 81//123 83//123 31//123
f 83//124 30//124 31//124
f 82//125 12//125 83//125
f 12//126 11//126 83//126
f 83//127 11//127 30//127
f 11//128 1//128 30//128
f 14//129 29//129 1//129
f 13//130 84//130 14//130
f 14//131 84//131 29//131
f 84//132 28//132 29//132
f 13//133 85//133 84//133
f 85//134 86//134 84//134
f 84//135 86//135 28//135
f 86//136 27//136 28//136
f 85//137 8//137 86//137
f 8//138 7//138 86//138
f 86//139 7//139 27//139
f 7//140 5//140 27//140
f 23//141 26//141 4//141
f 24//142 87//142 23//142
f 23//143 87//143 26//143
f 87//144 25//144 26//144
f 19//145 22//145 3//145
f 20//146 88//146 19//146
f 19//147 88//147 22//147
f 88//148 21//148 22//148
f 15//149 18//149 2//149
f 16//150 89//150 15//150
f 15//151 89//151 18//151
f 89//152 17//152 18//152
f 11//153 14//153 1//153
f 12//154 90//154 11//154
f 11//155 90//155 14//155
f 90//156 13//156 14//156
f 7//157 10//157 5//157
f 8//158 91//158 7//158
f 7//159 91//159 10//159
f 91//160 9//160 10//160
