# Blender v3.1.2 OBJ File: ''
# www.blender.org
o eyes
v -4.633529 -5.339108 1.935477
v -4.632338 -5.341337 1.928579
v -4.630716 -5.342993 1.934258
v -4.636904 -5.333114 1.926962
v -4.634921 -5.336321 1.932020
v -4.635159 -5.339456 1.922862
v -4.629825 -5.347785 1.925563
v -4.627181 -5.348898 1.932183
v -4.633630 -5.346781 1.919220
v -4.637441 -5.337197 1.916819
v -4.636356 -5.344891 1.912926
v -4.638810 -5.330220 1.921077
v -4.640626 -5.327911 1.914777
v -4.639273 -5.335077 1.910699
v -4.638201 -5.342816 1.906763
v -4.627702 -5.361079 1.912098
v -4.633909 -5.352311 1.909164
v -4.630392 -5.359378 1.905429
v -4.631045 -5.354085 1.915741
v -4.635786 -5.350265 1.902859
v -4.632249 -5.357319 1.898950
v -4.620545 -5.363600 1.925595
v -4.626989 -5.354930 1.922416
v -4.623740 -5.362157 1.918795
v -4.623885 -5.356110 1.929162
v -4.640821 -5.333453 1.904688
v -4.639497 -5.341054 1.900687
v -4.642369 -5.326595 1.908570
v -4.643818 -5.326105 1.902598
v -4.641951 -5.332331 1.898999
v -4.640263 -5.339297 1.895013
v -4.644722 -5.326321 1.897153
v -4.645164 -5.326880 1.893315
v -4.642659 -5.331433 1.893881
v -4.643633 -5.330431 1.889863
v -4.640542 -5.337448 1.889819
v -4.634423 -5.353050 1.887059
v -4.637794 -5.343977 1.885687
v -4.634227 -5.350602 1.881712
v -4.637822 -5.346276 1.890957
v -4.641243 -5.335708 1.885453
v -4.638043 -5.342049 1.880961
v -4.634149 -5.348769 1.876736
v -4.637131 -5.348358 1.896701
v -4.633660 -5.355321 1.892748
v -4.617658 -5.372112 1.867088
v -4.619750 -5.368908 1.872152
v -4.620610 -5.367884 1.868166
v -4.615758 -5.373991 1.869544
v -4.618663 -5.371017 1.876829
v -4.624539 -5.365570 1.880052
v -4.624753 -5.363285 1.874967
v -4.624947 -5.361976 1.870230
v -4.622192 -5.370131 1.891518
v -4.617068 -5.373355 1.882153
v -4.615420 -5.375508 1.888110
v -4.623598 -5.367895 1.885540
v -4.613447 -5.376453 1.873622
v -4.611254 -5.378840 1.878854
v -4.609440 -5.381024 1.885148
v -4.629172 -5.361862 1.889079
v -4.629905 -5.359558 1.883427
v -4.627715 -5.364098 1.895122
v -4.629747 -5.357134 1.878119
v -4.629651 -5.355474 1.873143
v -4.613982 -5.377366 1.894665
v -4.620625 -5.372214 1.897888
v -4.607082 -5.384385 1.898879
v -4.612390 -5.378882 1.901264
v -4.618561 -5.373783 1.904509
v -4.610445 -5.380015 1.907541
v -4.615360 -5.374925 1.910988
v -4.606749 -5.385347 1.905331
v -4.607370 -5.386071 1.910040
v -4.609262 -5.382292 1.913079
v -4.612854 -5.377079 1.917195
v -4.619803 -5.368886 1.914962
v -4.623591 -5.367761 1.908244
v -4.616689 -5.370753 1.921550
v -4.626079 -5.366083 1.901596
v -4.605589 -5.392113 1.905167
v -4.604712 -5.391647 1.897719
v -4.604791 -5.390116 1.890043
v -4.608042 -5.382935 1.891986
v -4.605845 -5.387881 1.882622
v -4.607622 -5.385334 1.875832
v -4.610194 -5.382373 1.870306
v -4.613555 -5.378922 1.866299
v -4.617156 -5.374835 1.864165
v -4.631971 -5.344473 1.940421
v -4.635419 -5.338504 1.939931
v -4.628000 -5.351219 1.938929
v -4.623970 -5.358934 1.936054
v -4.620161 -5.366857 1.932249
v -4.616354 -5.374590 1.927735
v -4.612819 -5.381691 1.922792
v -4.609663 -5.387243 1.917489
v -4.607075 -5.390974 1.911788
v -4.647274 -5.324556 1.892993
v -4.647596 -5.322106 1.899130
v -4.646946 -5.321143 1.905538
v -4.645597 -5.321356 1.912262
v -4.643836 -5.322793 1.919111
v -4.641953 -5.325297 1.925683
v -4.639969 -5.328809 1.931753
v -4.637914 -5.333274 1.936844
v -4.621134 -5.369201 1.864203
v -4.625632 -5.362445 1.865776
v -4.630417 -5.355269 1.868553
v -4.635117 -5.348041 1.872271
v -4.639446 -5.340934 1.876741
v -4.643058 -5.334382 1.881832
v -4.645728 -5.328722 1.887369
v -4.271152 -5.215688 1.935477
v -4.270735 -5.218180 1.928579
v -4.271750 -5.212630 1.932020
v -4.270205 -5.227317 1.932183
v -4.271004 -5.220480 1.934258
v -4.268784 -5.224820 1.925563
v -4.269643 -5.214967 1.922862
v -4.272131 -5.208878 1.926962
v -4.266383 -5.221702 1.919220
v -4.266675 -5.232212 1.922421
v -4.263974 -5.228962 1.915714
v -4.268415 -5.235071 1.929227
v -4.266482 -5.243011 1.925595
v -4.264868 -5.239879 1.918899
v -4.262371 -5.236675 1.912158
v -4.265177 -5.215769 1.906763
v -4.262790 -5.225936 1.909229
v -4.262555 -5.223147 1.902859
v -4.265355 -5.218642 1.912953
v -4.261259 -5.233657 1.905429
v -4.261045 -5.230892 1.898950
v -4.272364 -5.202486 1.914777
v -4.269220 -5.211786 1.916819
v -4.269064 -5.208983 1.910699
v -4.272388 -5.205422 1.921077
v -4.263824 -5.247622 1.914897
v -4.261537 -5.244444 1.908244
v -4.265166 -5.251029 1.921550
v -4.264341 -5.258415 1.917249
v -4.263679 -5.255141 1.910988
v -4.261845 -5.252285 1.904509
v -4.264473 -5.262181 1.907541
v -4.263609 -5.260093 1.901264
v -4.264006 -5.264702 1.913079
v -4.263206 -5.268825 1.910089
v -4.264142 -5.268660 1.905336
v -4.264460 -5.267693 1.898879
v -4.261191 -5.247179 1.891523
v -4.263284 -5.257923 1.894665
v -4.263278 -5.255574 1.888115
v -4.261161 -5.249785 1.897888
v -4.264585 -5.265958 1.891986
v -4.264647 -5.263615 1.885213
v -4.260580 -5.241679 1.901558
v -4.260499 -5.239029 1.895122
v -4.263574 -5.251516 1.867088
v -4.263872 -5.247701 1.872152
v -4.263937 -5.254165 1.869544
v -4.263992 -5.239040 1.870230
v -4.263815 -5.246365 1.868166
v -4.262121 -5.242135 1.880052
v -4.263451 -5.250037 1.876829
v -4.264265 -5.257526 1.873616
v -4.263144 -5.232275 1.878119
v -4.261535 -5.234096 1.883427
v -4.263343 -5.240187 1.874967
v -4.264234 -5.231018 1.873143
v -4.264763 -5.222962 1.876736
v -4.263578 -5.224364 1.881712
v -4.261925 -5.226263 1.887021
v -4.260708 -5.236472 1.889101
v -4.261434 -5.244576 1.885600
v -4.261154 -5.228393 1.892846
v -4.263288 -5.252862 1.882153
v -4.264544 -5.260791 1.878914
v -4.264806 -5.216943 1.885687
v -4.263371 -5.218743 1.890957
v -4.265783 -5.215257 1.880961
v -4.267111 -5.208283 1.885453
v -4.266610 -5.210092 1.889819
v -4.265697 -5.211725 1.895013
v -4.268439 -5.202645 1.889863
v -4.269393 -5.198898 1.893315
v -4.268604 -5.204036 1.893881
v -4.270092 -5.198721 1.897202
v -4.268612 -5.205177 1.898999
v -4.268827 -5.206757 1.904688
v -4.265231 -5.213584 1.900687
v -4.270933 -5.199106 1.902598
v -4.271782 -5.200378 1.908570
v -4.262658 -5.220818 1.896701
v -4.262314 -5.253981 1.864165
v -4.262667 -5.259415 1.866299
v -4.263227 -5.264202 1.870306
v -4.263479 -5.268089 1.875925
v -4.261905 -5.274892 1.897719
v -4.260936 -5.274729 1.905167
v -4.260482 -5.272838 1.911826
v -4.263311 -5.271218 1.882622
v -4.262772 -5.273629 1.890048
v -4.260671 -5.268381 1.917489
v -4.261559 -5.262057 1.922792
v -4.263066 -5.254306 1.927801
v -4.264804 -5.245827 1.932249
v -4.269111 -5.220888 1.940421
v -4.268128 -5.228738 1.938907
v -4.266618 -5.237225 1.936054
v -4.271251 -5.208423 1.936790
v -4.270023 -5.214055 1.939931
v -4.272336 -5.203598 1.931753
v -4.272906 -5.199663 1.925639
v -4.272940 -5.196471 1.919111
v -4.270386 -5.193686 1.899108
v -4.271491 -5.193262 1.905538
v -4.269150 -5.195744 1.893042
v -4.272438 -5.194333 1.912289
v -4.267828 -5.200015 1.887369
v -4.266495 -5.206055 1.881892
v -4.265350 -5.213521 1.876741
v -4.263163 -5.238993 1.865776
v -4.262597 -5.247088 1.864203
v -4.264442 -5.221794 1.872271
v -4.263747 -5.230386 1.868553
vn -0.8233 -0.5522 -0.1311
vn -0.8552 -0.4916 0.1644
vn -0.8366 -0.5384 -0.1010
vn -0.8784 -0.4772 0.0283
vn -0.8562 -0.5139 -0.0536
vn -0.8999 -0.3468 0.2644
vn -0.8132 -0.4793 0.3301
vn -0.8803 -0.4744 -0.0030
vn -0.8517 -0.3977 0.3412
vn -0.9320 -0.2829 0.2268
vn -0.9142 -0.3286 0.2372
vn -0.8935 -0.4385 0.0970
vn -0.8891 -0.4378 0.1331
vn -0.9457 -0.2605 0.1943
vn -0.9419 -0.2998 0.1514
vn -0.7782 -0.5695 0.2648
vn -0.8737 -0.4498 0.1850
vn -0.8310 -0.5410 0.1293
vn -0.8086 -0.4920 0.3227
vn -0.9017 -0.4210 0.0981
vn -0.8526 -0.5200 0.0514
vn -0.8834 -0.4620 0.0783
vn -0.7962 -0.4905 0.3543
vn -0.7718 -0.5578 0.3051
vn -0.8954 -0.4388 0.0762
vn -0.9466 -0.2800 0.1598
vn -0.9520 -0.2950 0.0815
vn -0.8755 -0.4523 0.1704
vn -0.8628 -0.4785 0.1632
vn -0.9482 -0.3055 0.0876
vn -0.9604 -0.2783 -0.0099
vn -0.8310 -0.5254 0.1831
vn -0.7893 -0.5626 0.2459
vn -0.9183 -0.3826 0.1015
vn -0.8320 -0.5322 0.1566
vn -0.9441 -0.3287 -0.0255
vn -0.8823 -0.4472 -0.1467
vn -0.9191 -0.3701 -0.1354
vn -0.8790 -0.4313 -0.2034
vn -0.9307 -0.3563 -0.0827
vn -0.8642 -0.4939 0.0962
vn -0.8743 -0.4853 0.0017
vn -0.8537 -0.5181 -0.0522
vn -0.9185 -0.3946 0.0263
vn -0.8679 -0.4962 -0.0224
vn -0.8003 -0.5557 0.2254
vn -0.7849 -0.6172 -0.0554
vn -0.7906 -0.5936 0.1503
vn -0.7996 -0.5842 0.1391
vn -0.7278 -0.6790 -0.0959
vn -0.7736 -0.6060 -0.1853
vn -0.8113 -0.5550 -0.1838
vn -0.8071 -0.5898 0.0267
vn -0.7000 -0.7101 -0.0758
vn -0.6869 -0.7222 -0.0812
vn -0.6688 -0.7406 -0.0646
vn -0.7315 -0.6717 -0.1174
vn -0.7845 -0.6179 0.0531
vn -0.7762 -0.6297 0.0329
vn -0.7871 -0.6168 0.0072
vn -0.8005 -0.5929 -0.0869
vn -0.8219 -0.5343 -0.1975
vn -0.7894 -0.6137 -0.0151
vn -0.8288 -0.5114 -0.2269
vn -0.8285 -0.5585 -0.0394
vn -0.6664 -0.7439 -0.0501
vn -0.6868 -0.7265 -0.0224
vn -0.8362 -0.5478 -0.0270
vn -0.6842 -0.7291 0.0168
vn -0.6728 -0.7319 0.1084
vn -0.7723 -0.6350 0.0164
vn -0.7222 -0.6775 0.1393
vn -0.9041 -0.4147 -0.1034
vn -0.9387 -0.2789 -0.2026
vn -0.8994 -0.4112 -0.1485
vn -0.8581 -0.5112 -0.0490
vn -0.7446 -0.6231 0.2393
vn -0.7352 -0.6464 0.2039
vn -0.8606 -0.5086 0.0272
vn -0.7768 -0.6263 0.0658
vn -0.9754 -0.1472 -0.1642
vn -0.9637 -0.2606 -0.0581
vn -0.9234 -0.3839 -0.0011
vn -0.8254 -0.5643 -0.0166
vn -0.8872 -0.4596 0.0408
vn -0.8593 -0.5039 0.0871
vn -0.8274 -0.5392 0.1572
vn -0.8165 -0.5316 0.2253
vn -0.7879 -0.5236 0.3242
vn -0.8369 -0.4639 -0.2904
vn -0.8113 -0.5139 -0.2787
vn -0.8791 -0.3980 -0.2624
vn -0.9137 -0.3650 -0.1784
vn -0.9139 -0.3768 -0.1513
vn -0.9143 -0.3550 -0.1952
vn -0.9161 -0.2920 -0.2748
vn -0.9257 -0.1889 -0.3276
vn -0.9542 -0.1444 -0.2622
vn -0.7346 -0.6458 0.2080
vn -0.7686 -0.6168 0.1698
vn -0.7867 -0.5994 0.1476
vn -0.8036 -0.5837 0.1159
vn -0.8228 -0.5657 0.0544
vn -0.8349 -0.5504 0.0019
vn -0.8227 -0.5652 -0.0612
vn -0.8081 -0.5609 -0.1799
vn -0.7510 -0.5804 0.3149
vn -0.7701 -0.6051 0.2022
vn -0.7901 -0.6001 0.1249
vn -0.8091 -0.5815 0.0848
vn -0.8197 -0.5593 0.1237
vn -0.8071 -0.5595 0.1886
vn -0.7723 -0.5845 0.2488
vn 0.9789 0.0728 -0.1911
vn 0.9775 0.1325 0.1644
vn 0.9930 0.1042 -0.0554
vn 0.9862 0.1642 -0.0213
vn 0.9900 0.1100 -0.0885
vn 0.9305 0.1261 0.3438
vn 0.9314 0.2685 0.2458
vn 0.9831 0.1787 0.0403
vn 0.9178 0.2063 0.3392
vn 0.9304 0.0978 0.3534
vn 0.9400 0.1098 0.3229
vn 0.9750 0.2097 0.0729
vn 0.9833 0.1637 0.0797
vn 0.9518 0.0305 0.3052
vn 0.9637 0.0242 0.2660
vn 0.9288 0.3377 0.1526
vn 0.9668 0.1764 0.1849
vn 0.9713 0.2169 0.0976
vn 0.9242 0.3019 0.2340
vn 0.9884 0.0785 0.1299
vn 0.9928 0.1084 0.0518
vn 0.9726 0.1915 0.1317
vn 0.9111 0.3447 0.2262
vn 0.9082 0.3706 0.1944
vn 0.9751 0.1998 0.0964
vn 0.9699 -0.0390 0.2403
vn 0.9770 -0.0618 0.2041
vn 0.9920 0.1229 0.0283
vn 0.9913 0.1208 -0.0517
vn 0.9859 -0.0963 0.1369
vn 0.9797 -0.1690 0.1078
vn 0.9994 -0.0314 0.0162
vn 0.9870 -0.1597 0.0171
vn 0.9634 0.2231 -0.1484
vn 0.9139 0.3519 -0.2024
vn 0.9692 0.2237 -0.1030
vn 0.9967 0.0763 -0.0271
vn 0.9887 -0.1295 -0.0751
vn 0.9819 -0.1826 -0.0502
vn 0.9818 -0.1784 -0.0649
vn 0.9868 -0.1605 -0.0198
vn 0.9998 0.0176 -0.0068
vn 0.9999 -0.0081 0.0069
vn 0.9976 -0.0230 0.0656
vn 0.9999 -0.0039 -0.0145
vn 0.9662 0.0431 0.2541
vn 0.9984 -0.0099 -0.0554
vn 0.9897 0.0290 0.1404
vn 0.9986 0.0261 0.0457
vn 0.9885 0.0080 0.1508
vn 0.9827 -0.0078 -0.1852
vn 0.9910 -0.0937 -0.0958
vn 0.9971 -0.0172 0.0740
vn 0.9687 0.1008 -0.2269
vn 0.9773 0.0699 -0.1999
vn 0.9857 0.0155 -0.1678
vn 0.9976 0.0544 -0.0425
vn 0.9925 0.1107 -0.0523
vn 0.9595 0.1952 -0.2032
vn 0.9716 0.1842 -0.1484
vn 0.9960 0.0180 -0.0873
vn 0.9879 -0.0912 -0.1251
vn 0.9903 0.1374 -0.0212
vn 0.9849 -0.1533 -0.0810
vn 0.9992 -0.0252 0.0326
vn 0.9539 0.2676 -0.1356
vn 0.9552 0.2839 -0.0841
vn 0.9888 0.1491 0.0017
vn 0.9833 0.1494 0.1038
vn 0.9485 0.3159 -0.0252
vn 0.9306 0.3658 -0.0098
vn 0.9838 0.0866 0.1569
vn 0.9872 -0.0013 0.1598
vn 0.9684 0.2405 0.0666
vn 0.9788 0.0917 0.1831
vn 0.9375 0.3367 0.0875
vn 0.9207 0.3560 0.1597
vn 0.9350 0.3447 0.0828
vn 0.9763 0.1461 0.1598
vn 0.9694 0.1766 0.1708
vn 0.9684 0.2481 0.0267
vn 0.9436 0.0662 0.3243
vn 0.9707 0.0684 0.2305
vn 0.9841 0.0851 0.1557
vn 0.9885 0.1265 0.0833
vn 0.9238 0.3796 -0.0505
vn 0.8601 0.4865 -0.1538
vn 0.8443 0.4670 -0.2627
vn 0.9828 0.1807 0.0383
vn 0.9660 0.2584 0.0003
vn 0.8517 0.4175 -0.3169
vn 0.9023 0.3275 -0.2804
vn 0.9403 0.2784 -0.1959
vn 0.9536 0.2602 -0.1515
vn 0.9466 0.1486 -0.2861
vn 0.9394 0.2217 -0.2615
vn 0.9461 0.2691 -0.1804
vn 0.9812 0.0574 -0.1845
vn 0.9586 0.0760 -0.2743
vn 0.9950 0.0584 -0.0813
vn 0.9973 0.0738 0.0017
vn 0.9971 0.0544 0.0537
vn 0.9828 -0.0157 0.1840
vn 0.9890 0.0057 0.1475
vn 0.9695 -0.0464 0.2406
vn 0.9934 0.0303 0.1104
vn 0.9680 0.0105 0.2507
vn 0.9808 0.0504 0.1884
vn 0.9902 0.0598 0.1264
vn 0.9793 -0.0093 0.2022
vn 0.9483 0.0021 0.3173
vn 0.9949 0.0348 0.0947
vn 0.9929 0.0050 0.1187
s 1
f 1//1 2//2 3//3
f 4//4 2//2 5//5
f 6//6 7//7 2//2
f 2//2 8//8 3//3
f 9//9 10//10 11//11
f 6//6 12//12 10//10
f 10//10 13//13 14//14
f 11//11 14//14 15//15
f 16//16 17//17 18//18
f 19//19 11//11 17//17
f 17//17 15//15 20//20
f 18//18 20//20 21//21
f 22//22 23//23 24//24
f 25//25 7//7 23//23
f 23//23 9//9 19//19
f 24//24 19//19 16//16
f 15//15 26//26 27//27
f 14//14 28//28 26//26
f 26//26 29//29 30//30
f 27//27 30//30 31//31
f 32//32 30//30 29//29
f 33//33 34//34 32//32
f 35//35 36//36 34//34
f 34//34 31//31 30//30
f 37//37 38//38 39//39
f 40//40 36//36 38//38
f 38//38 41//41 42//42
f 39//39 42//42 43//43
f 21//21 44//44 45//45
f 20//20 27//27 44//44
f 44//44 31//31 40//40
f 45//45 40//40 37//37
f 46//46 47//47 48//48
f 49//49 50//50 47//47
f 47//47 51//51 52//52
f 47//47 53//53 48//48
f 54//54 55//55 56//56
f 57//57 50//50 55//55
f 55//55 58//58 59//59
f 56//56 59//59 60//60
f 37//37 61//61 45//45
f 62//62 57//57 61//61
f 61//61 54//54 63//63
f 45//45 63//63 21//21
f 43//43 64//64 39//39
f 65//65 52//52 64//64
f 64//64 51//51 62//62
f 39//39 62//62 37//37
f 54//54 66//66 67//67
f 60//60 66//66 56//56
f 66//66 68//68 69//69
f 67//67 69//69 70//70
f 70//70 71//71 72//72
f 69//69 73//73 71//71
f 71//71 74//74 75//75
f 72//72 75//75 76//76
f 16//16 77//77 24//24
f 78//78 72//72 77//77
f 77//77 76//76 79//79
f 24//24 79//79 22//22
f 21//21 80//80 18//18
f 63//63 67//67 80//80
f 80//80 70//70 78//78
f 18//18 78//78 16//16
f 81//81 74//74 73//73
f 82//82 73//73 68//68
f 83//83 68//68 84//84
f 85//85 84//84 60//60
f 86//86 60//60 59//59
f 87//87 59//59 58//58
f 58//58 88//88 87//87
f 49//49 89//89 88//88
f 1//1 90//90 91//91
f 3//3 92//92 90//90
f 93//93 8//8 25//25
f 94//94 25//25 22//22
f 94//94 79//79 95//95
f 95//95 76//76 96//96
f 96//96 75//75 97//97
f 97//97 74//74 98//98
f 32//32 99//99 33//33
f 29//29 100//100 32//32
f 101//101 28//28 102//102
f 102//102 13//13 103//103
f 103//103 12//12 104//104
f 104//104 4//4 105//105
f 5//5 105//105 4//4
f 1//1 106//106 5//5
f 46//46 107//107 89//89
f 48//48 108//108 107//107
f 109//109 53//53 65//65
f 110//110 65//65 43//43
f 111//111 43//43 42//42
f 112//112 42//42 41//41
f 41//41 113//113 112//112
f 33//33 113//113 35//35
f 114//114 115//115 116//116
f 117//117 115//115 118//118
f 119//119 120//120 115//115
f 115//115 121//121 116//116
f 122//122 123//123 124//124
f 119//119 125//125 123//123
f 123//123 126//126 127//127
f 124//124 127//127 128//128
f 129//129 130//130 131//131
f 132//132 124//124 130//130
f 130//130 128//128 133//133
f 131//131 133//133 134//134
f 135//135 136//136 137//137
f 138//138 120//120 136//136
f 136//136 122//122 132//132
f 137//137 132//132 129//129
f 128//128 139//139 140//140
f 127//127 141//141 139//139
f 139//139 142//142 143//143
f 140//140 143//143 144//144
f 144//144 145//145 146//146
f 143//143 147//147 145//145
f 145//145 148//148 149//149
f 146//146 149//149 150//150
f 151//151 152//152 153//153
f 154//154 146//146 152//152
f 152//152 150//150 155//155
f 152//152 156//156 153//153
f 134//134 157//157 158//158
f 133//133 140//140 157//157
f 157//157 144//144 154//154
f 158//158 154//154 151//151
f 159//159 160//160 161//161
f 162//162 160//160 163//163
f 160//160 164//164 165//165
f 161//161 165//165 166//166
f 164//164 167//167 168//168
f 169//169 170//170 167//167
f 167//167 171//171 172//172
f 168//168 172//172 173//173
f 151//151 174//174 158//158
f 175//175 168//168 174//174
f 174//174 173//173 176//176
f 158//158 176//176 134//134
f 151//151 177//177 175//175
f 153//153 178//178 177//177
f 177//177 166//166 165//165
f 175//175 165//165 164//164
f 173//173 179//179 180//180
f 172//172 181//181 179//179
f 179//179 182//182 183//183
f 180//180 183//183 184//184
f 185//185 183//183 182//182
f 186//186 187//187 185//185
f 188//188 189//189 187//187
f 187//187 184//184 183//183
f 129//129 190//190 137//137
f 191//191 189//189 190//190
f 190//190 192//192 193//193
f 137//137 193//193 135//135
f 134//134 194//194 131//131
f 176//176 180//180 194//194
f 194//194 184//184 191//191
f 131//131 191//191 129//129
f 195//195 161//161 196//196
f 196//196 166//166 197//197
f 156//156 198//198 178//178
f 178//178 197//197 166//166
f 199//199 149//149 200//200
f 200//200 148//148 201//201
f 202//202 155//155 203//203
f 203//203 150//150 199//199
f 204//204 148//148 147//147
f 205//205 147//147 142//142
f 206//206 142//142 141//141
f 207//207 141//141 126//126
f 114//114 208//208 118//118
f 118//118 209//209 117//117
f 207//207 125//125 210//210
f 210//210 117//117 209//209
f 114//114 211//211 212//212
f 116//116 213//213 211//211
f 214//214 121//121 138//138
f 215//215 138//138 135//135
f 192//192 216//216 217//217
f 188//188 218//218 216//216
f 135//135 219//219 215//215
f 193//193 217//217 219//219
f 186//186 220//220 218//218
f 220//220 182//182 221//221
f 171//171 222//222 181//181
f 181//181 221//221 182//182
f 223//223 163//163 224//224
f 224//224 159//159 195//195
f 225//225 170//170 226//226
f 226//226 162//162 223//223
f 1//1 5//5 2//2
f 4//4 6//6 2//2
f 6//6 9//9 7//7
f 2//2 7//7 8//8
f 9//9 6//6 10//10
f 6//6 4//4 12//12
f 10//10 12//12 13//13
f 11//11 10//10 14//14
f 16//16 19//19 17//17
f 19//19 9//9 11//11
f 17//17 11//11 15//15
f 18//18 17//17 20//20
f 22//22 25//25 23//23
f 25//25 8//8 7//7
f 23//23 7//7 9//9
f 24//24 23//23 19//19
f 15//15 14//14 26//26
f 14//14 13//13 28//28
f 26//26 28//28 29//29
f 27//27 26//26 30//30
f 32//32 34//34 30//30
f 33//33 35//35 34//34
f 35//35 41//41 36//36
f 34//34 36//36 31//31
f 37//37 40//40 38//38
f 40//40 31//31 36//36
f 38//38 36//36 41//41
f 39//39 38//38 42//42
f 21//21 20//20 44//44
f 20//20 15//15 27//27
f 44//44 27//27 31//31
f 45//45 44//44 40//40
f 46//46 49//49 47//47
f 49//49 58//58 50//50
f 47//47 50//50 51//51
f 47//47 52//52 53//53
f 54//54 57//57 55//55
f 57//57 51//51 50//50
f 55//55 50//50 58//58
f 56//56 55//55 59//59
f 37//37 62//62 61//61
f 62//62 51//51 57//57
f 61//61 57//57 54//54
f 45//45 61//61 63//63
f 43//43 65//65 64//64
f 65//65 53//53 52//52
f 64//64 52//52 51//51
f 39//39 64//64 62//62
f 54//54 56//56 66//66
f 60//60 84//84 66//66
f 66//66 84//84 68//68
f 67//67 66//66 69//69
f 70//70 69//69 71//71
f 69//69 68//68 73//73
f 71//71 73//73 74//74
f 72//72 71//71 75//75
f 16//16 78//78 77//77
f 78//78 70//70 72//72
f 77//77 72//72 76//76
f 24//24 77//77 79//79
f 21//21 63//63 80//80
f 63//63 54//54 67//67
f 80//80 67//67 70//70
f 18//18 80//80 78//78
f 81//81 98//98 74//74
f 82//82 81//81 73//73
f 83//83 82//82 68//68
f 85//85 83//83 84//84
f 86//86 85//85 60//60
f 87//87 86//86 59//59
f 58//58 49//49 88//88
f 49//49 46//46 89//89
f 1//1 3//3 90//90
f 3//3 8//8 92//92
f 93//93 92//92 8//8
f 94//94 93//93 25//25
f 94//94 22//22 79//79
f 95//95 79//79 76//76
f 96//96 76//76 75//75
f 97//97 75//75 74//74
f 32//32 100//100 99//99
f 29//29 101//101 100//100
f 101//101 29//29 28//28
f 102//102 28//28 13//13
f 103//103 13//13 12//12
f 104//104 12//12 4//4
f 5//5 106//106 105//105
f 1//1 91//91 106//106
f 46//46 48//48 107//107
f 48//48 53//53 108//108
f 109//109 108//108 53//53
f 110//110 109//109 65//65
f 111//111 110//110 43//43
f 112//112 111//111 42//42
f 41//41 35//35 113//113
f 33//33 99//99 113//113
f 114//114 118//118 115//115
f 117//117 119//119 115//115
f 119//119 122//122 120//120
f 115//115 120//120 121//121
f 122//122 119//119 123//123
f 119//119 117//117 125//125
f 123//123 125//125 126//126
f 124//124 123//123 127//127
f 129//129 132//132 130//130
f 132//132 122//122 124//124
f 130//130 124//124 128//128
f 131//131 130//130 133//133
f 135//135 138//138 136//136
f 138//138 121//121 120//120
f 136//136 120//120 122//122
f 137//137 136//136 132//132
f 128//128 127//127 139//139
f 127//127 126//126 141//141
f 139//139 141//141 142//142
f 140//140 139//139 143//143
f 144//144 143//143 145//145
f 143//143 142//142 147//147
f 145//145 147//147 148//148
f 146//146 145//145 149//149
f 151//151 154//154 152//152
f 154//154 144//144 146//146
f 152//152 146//146 150//150
f 152//152 155//155 156//156
f 134//134 133//133 157//157
f 133//133 128//128 140//140
f 157//157 140//140 144//144
f 158//158 157//157 154//154
f 159//159 163//163 160//160
f 162//162 169//169 160//160
f 160//160 169//169 164//164
f 161//161 160//160 165//165
f 164//164 169//169 167//167
f 169//169 162//162 170//170
f 167//167 170//170 171//171
f 168//168 167//167 172//172
f 151//151 175//175 174//174
f 175//175 164//164 168//168
f 174//174 168//168 173//173
f 158//158 174//174 176//176
f 151//151 153//153 177//177
f 153//153 156//156 178//178
f 177//177 178//178 166//166
f 175//175 177//177 165//165
f 173//173 172//172 179//179
f 172//172 171//171 181//181
f 179//179 181//181 182//182
f 180//180 179//179 183//183
f 185//185 187//187 183//183
f 186//186 188//188 187//187
f 188//188 192//192 189//189
f 187//187 189//189 184//184
f 129//129 191//191 190//190
f 191//191 184//184 189//189
f 190//190 189//189 192//192
f 137//137 190//190 193//193
f 134//134 176//176 194//194
f 176//176 173//173 180//180
f 194//194 180//180 184//184
f 131//131 194//194 191//191
f 195//195 159//159 161//161
f 196//196 161//161 166//166
f 156//156 202//202 198//198
f 178//178 198//198 197//197
f 199//199 150//150 149//149
f 200//200 149//149 148//148
f 202//202 156//156 155//155
f 203//203 155//155 150//150
f 204//204 201//201 148//148
f 205//205 204//204 147//147
f 206//206 205//205 142//142
f 207//207 206//206 141//141
f 114//114 212//212 208//208
f 118//118 208//208 209//209
f 207//207 126//126 125//125
f 210//210 125//125 117//117
f 114//114 116//116 211//211
f 116//116 121//121 213//213
f 214//214 213//213 121//121
f 215//215 214//214 138//138
f 192//192 188//188 216//216
f 188//188 186//186 218//218
f 135//135 193//193 219//219
f 193//193 192//192 217//217
f 186//186 185//185 220//220
f 220//220 185//185 182//182
f 171//171 225//225 222//222
f 181//181 222//222 221//221
f 223//223 162//162 163//163
f 224//224 163//163 159//159
f 225//225 171//171 170//170
f 226//226 170//170 162//162
