# Blender v3.1.2 OBJ File: ''
# www.blender.org
o nose
v -21.698576 7.464772 14.306721
v -21.520876 7.608313 14.180811
v -21.639389 7.342104 14.486716
v -21.425558 7.784001 14.218822
v -21.285681 7.566866 14.723554
v -21.398762 7.363009 14.664107
v -21.343708 7.852459 14.331257
v -21.373949 7.934988 14.557600
v -21.331318 7.737036 14.749338
v -21.342247 7.853022 14.333878
v -22.152021 8.063789 15.340638
v -22.517393 7.560082 15.025840
v -22.603153 7.595490 14.808146
v -22.233995 8.468079 14.786046
v -22.638168 7.721304 14.615592
v -22.247421 7.842097 15.342981
v -22.370289 7.661929 15.247243
v -22.586794 8.008495 14.456412
v -22.404907 8.341360 14.537700
v -22.114853 8.378115 15.128163
vn 0.2045 -0.7763 -0.5963
vn 0.8412 -0.3714 -0.3929
vn 0.4290 -0.7571 -0.4927
vn 0.8475 -0.3551 -0.3944
vn 0.8441 -0.3663 -0.3915
vn 0.9668 0.2516 0.0448
vn 0.9666 0.2524 0.0450
vn 0.5939 0.0375 0.8036
vn -0.2696 -0.9617 -0.0502
vn 0.3797 0.8382 -0.3914
vn -0.3663 -0.8081 -0.4614
vn -0.3679 -0.8202 -0.4380
vn 0.3889 -0.4501 0.8038
vn -0.0204 -0.9031 0.4290
vn -0.0927 -0.9664 0.2397
vn -0.3824 -0.3947 -0.8355
vn -0.3512 -0.3328 -0.8751
vn -0.1399 0.2813 -0.9494
vn -0.1343 0.3037 -0.9433
vn 0.2562 0.7782 -0.5734
vn 0.2106 0.7594 -0.6157
vn 0.4624 0.8517 -0.2465
vn 0.5335 0.8450 0.0364
vn 0.4890 -0.2015 0.8487
vn 0.2741 -0.5903 0.7592
vn 0.6862 0.5769 0.4430
vn 0.6355 0.3794 0.6724
s 1
f 1//1 2//1 3//1
f 4//2 5//2 2//2
f 6//3 3//3 2//3
f 5//4 6//4 2//4
f 7//5 5//5 4//5
f 8//6 9//6 10//6
f 5//7 10//7 9//7
f 5//8 9//8 11//8
f 3//9 12//9 13//9
f 7//10 14//10 10//10
f 15//11 3//11 13//11
f 15//12 1//12 3//12
f 5//13 16//13 6//13
f 12//14 6//14 17//14
f 3//15 6//15 12//15
f 15//16 18//16 1//16
f 18//17 2//17 1//17
f 18//18 4//18 2//18
f 19//19 4//19 18//19
f 19//20 14//20 4//20
f 7//21 4//21 14//21
f 8//22 10//22 14//22
f 20//23 8//23 14//23
f 16//24 5//24 11//24
f 6//25 16//25 17//25
f 20//26 9//26 8//26
f 20//27 11//27 9//27
