# Blender v3.1.2 OBJ File: ''
# www.blender.org
o tail.001
v 4.108169 -0.748313 1.857878
v 4.097578 -0.748571 1.851044
v 4.053916 -0.839895 1.807672
v 4.068981 -0.812677 1.775164
v 4.198044 -0.549272 1.701157
v 4.190169 -0.596607 1.659378
v 4.211505 -0.517739 1.707936
v 3.901634 -1.276150 1.480782
v 3.825339 -1.382149 1.507500
v 3.886909 -1.342548 1.457283
v 3.938021 -1.215621 1.392044
v 3.917687 -1.194354 1.417148
v 4.214147 -0.806199 1.841742
v 4.206289 -0.801379 1.849991
v 4.181493 -0.846492 1.833605
v 3.952158 -1.262996 1.412352
v 3.979541 -1.246314 1.467113
v 3.990002 -1.229999 1.394165
v 3.896959 -1.190300 1.391375
v 4.012609 -1.236626 1.393443
v 3.866230 -1.214130 1.510343
v 3.886823 -1.165347 1.493455
v 3.790935 -1.329115 1.439836
v 3.837770 -1.299045 1.514629
v 3.885100 -1.225714 1.560654
v 3.786619 -1.407657 1.499899
v 3.905163 -1.237875 1.567183
v 3.875517 -1.320111 1.511448
v 3.987622 -1.112458 1.599311
v 3.988273 -1.096059 1.650459
v 3.927139 -1.124048 1.509267
v 3.944279 -1.162707 1.496141
v 4.042336 -0.845471 1.763054
v 4.077752 -0.830221 1.764501
v 4.008216 -0.907895 1.375078
v 4.020232 -0.907437 1.338861
v 4.000721 -0.971589 1.253811
v 3.952304 -1.047683 1.273344
v 3.995394 -0.956154 1.377065
v 3.941549 -1.079321 1.294671
v 3.956823 -1.087487 1.322383
v 4.029436 -0.962815 1.392487
v 4.041432 -0.961670 1.367544
v 4.031525 -1.020107 1.297581
v 4.043285 -0.945419 1.295013
v 4.065480 -0.878565 1.380789
v 4.165338 -0.640831 1.593232
v 4.088981 -1.093510 1.610726
v 4.020690 -1.238304 1.565647
v 4.018239 -1.317093 1.427804
v 4.041950 -1.217652 1.486010
v 4.026041 -1.199603 1.479811
v 4.071105 -1.084801 1.597563
v 3.988609 -1.204394 1.582966
v 3.937051 -1.329727 1.478390
v 3.914018 -1.428401 1.505517
v 4.137879 -0.914440 1.755389
v 3.965541 -1.314523 1.545298
v 3.992624 -1.259361 1.568255
v 4.101398 -0.971186 1.389191
v 4.073395 -1.008210 1.299099
v 4.041450 -1.095089 1.332879
v 4.252599 -0.670218 1.640198
v 4.266141 -0.641286 1.633374
v 4.134694 -0.921203 1.376708
v 4.093484 -1.021884 1.375930
v 4.151477 -0.972821 1.344714
v 4.313025 -0.568725 1.705075
v 4.079515 -1.136173 1.283431
v 4.121181 -0.969393 1.294727
v 4.152121 -0.920375 1.370271
v 4.080441 -0.842270 1.816564
v 4.084211 -0.848635 1.776176
v 4.169832 -0.879093 1.766041
v 4.186620 -0.868175 1.814894
v 4.241374 -0.745149 1.587163
v 4.313474 -0.564473 1.718681
v 3.851315 -1.225592 1.367600
v 3.908545 -1.354726 1.458756
v 3.867547 -1.550530 1.515414
v 3.990955 -1.089966 1.328068
v 4.035875 -0.924451 1.312486
v 3.941045 -1.533123 1.465092
v 4.022486 -1.289049 1.367615
v 4.109395 -1.039939 1.362685
vn -0.5357 -0.1418 0.8324
vn -0.5331 -0.1416 0.8341
vn -0.5340 -0.1398 0.8339
vn 0.4199 0.6080 -0.6738
vn 0.4128 0.6115 -0.6750
vn 0.4177 0.6116 -0.6719
vn 0.8419 -0.4291 0.3271
vn 0.8414 -0.4288 0.3288
vn 0.8410 -0.4305 0.3278
vn 0.7151 -0.3754 0.5897
vn 0.7372 -0.3466 0.5801
vn 0.7064 -0.3413 0.6201
vn 0.8426 0.2252 0.4892
vn 0.8313 0.2233 0.5091
vn 0.8433 0.2075 0.4957
vn 0.4549 -0.5172 0.7250
vn 0.4523 -0.5148 0.7282
vn 0.4543 -0.5126 0.7286
vn -0.6161 0.7832 0.0834
vn -0.6336 0.7701 0.0748
vn -0.6376 0.7648 0.0925
vn 0.5077 0.8107 -0.2917
vn 0.4934 0.8250 -0.2757
vn 0.5206 0.8099 -0.2701
vn 0.2564 0.9298 0.2640
vn 0.2897 0.9227 0.2545
vn 0.2814 0.9288 0.2410
vn -0.8724 0.4420 0.2088
vn -0.8726 0.4401 0.2118
vn -0.8678 0.4481 0.2147
vn -0.8583 0.3057 0.4122
vn -0.8527 0.3127 0.4185
vn -0.8583 0.3165 0.4040
vn -0.8671 0.3081 0.3915
vn -0.8646 0.3075 0.3973
vn -0.8593 0.3203 0.3987
vn -0.8575 0.3397 0.3863
vn -0.8487 0.3449 0.4010
vn -0.8401 0.3867 0.3804
vn -0.1567 -0.0732 0.9849
vn -0.1259 -0.0292 0.9916
vn -0.1828 -0.0572 0.9815
vn -0.6334 0.0234 0.7735
vn -0.6233 0.0196 0.7817
vn -0.6224 0.0568 0.7807
vn 0.8753 -0.4819 0.0410
vn 0.8711 -0.4885 0.0500
vn 0.8710 -0.4895 0.0414
vn 0.8393 -0.5208 0.1563
vn 0.8400 -0.5200 0.1550
vn 0.8433 -0.5134 0.1589
vn 0.7536 0.4914 -0.4365
vn 0.7518 0.4837 -0.4481
vn 0.7497 0.4862 -0.4489
vn -0.4983 0.6873 -0.5286
vn -0.4958 0.6888 -0.5289
vn -0.4973 0.6865 -0.5304
vn 0.4324 0.4558 -0.7780
vn 0.4301 0.4536 -0.7805
vn 0.4309 0.4579 -0.7776
vn -0.7808 0.5713 -0.2531
vn -0.7817 0.5701 -0.2527
vn -0.7791 0.5809 -0.2357
vn -0.8490 0.4872 -0.2046
vn -0.8578 0.4771 -0.1911
vn -0.8444 0.4961 -0.2023
vn -0.8691 0.0477 0.4923
vn -0.8442 0.0622 0.5324
vn -0.8771 0.0977 0.4703
vn -0.4190 -0.1867 0.8886
vn -0.4405 -0.2332 0.8669
vn -0.4375 -0.2345 0.8681
vn -0.4427 -0.4121 0.7964
vn -0.4421 -0.4151 0.7951
vn -0.4400 -0.4132 0.7973
vn 0.9877 -0.1559 -0.0119
vn 0.9898 -0.1426 -0.0035
vn 0.9859 -0.1672 0.0006
vn 0.9620 -0.2705 -0.0369
vn 0.9630 -0.2688 -0.0215
vn 0.9612 -0.2733 -0.0368
vn 0.7485 -0.5717 0.3361
vn 0.7488 -0.5729 0.3333
vn 0.7506 -0.5707 0.3331
vn 0.3713 0.5268 -0.7646
vn 0.3729 0.5278 -0.7631
vn 0.3718 0.5258 -0.7651
vn 0.8401 -0.4778 0.2567
vn 0.8413 -0.4759 0.2564
vn 0.8413 -0.4734 0.2610
vn 0.9513 -0.0478 -0.3044
vn 0.9471 -0.0414 -0.3183
vn 0.9485 -0.0364 -0.3146
vn 0.7500 0.5517 -0.3648
vn 0.7648 0.5556 -0.3261
vn 0.7612 0.5419 -0.3561
vn -0.5716 0.6874 -0.4480
vn -0.5631 0.6927 -0.4508
vn -0.5680 0.6854 -0.4556
vn 0.6810 0.3782 -0.6270
vn 0.6756 0.3779 -0.6331
vn 0.6712 0.3930 -0.6286
vn -0.9529 0.2625 0.1518
vn -0.9511 0.2626 0.1627
vn -0.9407 0.3004 0.1579
vn -0.8928 0.4410 -0.0919
vn -0.8943 0.4394 -0.0843
vn -0.8881 0.4513 -0.0878
vn -0.8513 0.5126 -0.1118
vn -0.8519 0.5100 -0.1189
vn -0.8535 0.5075 -0.1183
vn -0.0145 -0.2842 0.9587
vn -0.0407 -0.3110 0.9495
vn -0.0291 -0.3201 0.9469
vn -0.2406 -0.2548 0.9366
vn -0.2506 -0.2671 0.9305
vn -0.2454 -0.2695 0.9312
vn -0.9154 0.3830 0.1237
vn -0.9143 0.3824 0.1334
vn -0.9096 0.3968 0.1236
vn -0.9015 0.4317 0.0309
vn -0.9028 0.4293 0.0276
vn -0.9031 0.4285 0.0288
vn -0.8400 0.5243 -0.1397
vn -0.8382 0.5268 -0.1408
vn -0.8401 0.5235 -0.1420
vn -0.8542 -0.0036 0.5199
vn -0.8548 0.0011 0.5190
vn -0.8562 -0.0030 0.5166
vn 0.9017 -0.4264 0.0720
vn 0.9022 -0.4256 0.0702
vn 0.9094 -0.4079 0.0810
vn 0.8386 0.2322 -0.4927
vn 0.8423 0.2316 -0.4868
vn 0.8389 0.2288 -0.4938
vn -0.2151 0.8565 -0.4692
vn -0.2120 0.8608 -0.4628
vn -0.2130 0.8564 -0.4703
vn 0.6871 0.3112 -0.6565
vn 0.6855 0.3108 -0.6584
vn 0.6866 0.3138 -0.6559
vn -0.9175 0.3470 0.1945
vn -0.9185 0.3447 0.1939
vn -0.9171 0.3469 0.1963
vn -0.9128 0.4054 0.0497
vn -0.9145 0.4017 0.0484
vn -0.9136 0.4035 0.0505
vn -0.4651 -0.3249 0.8235
vn -0.4607 -0.3231 0.8267
vn -0.4676 -0.3191 0.8243
vn 0.2357 -0.5859 0.7754
vn 0.2326 -0.5903 0.7729
vn 0.2331 -0.5911 0.7722
vn 0.8853 0.0178 -0.4647
vn 0.8872 0.0196 -0.4610
vn 0.8863 0.0149 -0.4628
vn 0.9226 0.0879 -0.3755
vn 0.9238 0.0853 -0.3732
vn 0.9223 0.0842 -0.3771
vn -0.9209 0.3650 0.1367
vn -0.9214 0.3647 0.1346
vn -0.9216 0.3636 0.1357
vn 0.9534 -0.2010 -0.2249
vn 0.9540 -0.1998 -0.2236
vn 0.9539 -0.2010 -0.2230
vn 0.0969 0.6585 -0.7463
vn 0.0987 0.6597 -0.7450
vn 0.0980 0.6583 -0.7464
vn 0.6522 0.2690 -0.7087
vn 0.6547 0.2683 -0.7066
vn 0.6520 0.2663 -0.7100
vn -0.9136 0.3482 0.2100
vn -0.9151 0.3455 0.2080
vn -0.9145 0.3455 0.2103
vn -0.8864 0.4509 0.1051
vn -0.8869 0.4504 0.1027
vn -0.8882 0.4478 0.1030
vn -0.0980 0.6569 -0.7476
vn -0.1004 0.6589 -0.7455
vn -0.0947 0.6630 -0.7426
vn 0.2419 -0.6016 0.7613
vn 0.2441 -0.5962 0.7649
vn 0.2410 -0.6007 0.7623
vn -0.1196 -0.5614 0.8188
vn -0.1184 -0.5631 0.8178
vn -0.1169 -0.5594 0.8206
vn 0.8939 -0.4352 0.1076
vn 0.8939 -0.4359 0.1046
vn 0.8949 -0.4332 0.1071
vn 0.1434 0.6485 -0.7476
vn 0.1436 0.6473 -0.7486
vn 0.1424 0.6462 -0.7497
vn 0.4112 0.6167 -0.6713
vn -0.8589 0.5121 0.0008
vn -0.8639 0.5037 0.0013
vn -0.8645 0.5024 0.0177
vn 0.9412 -0.2803 0.1886
vn 0.9526 -0.2385 0.1889
vn 0.9344 -0.2894 0.2079
vn -0.1871 0.7586 -0.6242
vn -0.1880 0.7599 -0.6223
vn -0.1866 0.7612 -0.6211
vn 0.4573 -0.5159 0.7244
vn -0.7354 0.6535 -0.1794
vn -0.7359 0.6522 -0.1819
vn -0.7366 0.6520 -0.1795
vn -0.8341 0.4640 0.2982
vn -0.8369 0.4740 0.2736
vn -0.8438 0.4607 0.2751
vn -0.7487 0.5317 0.3959
vn -0.7331 0.5618 0.3833
vn -0.7483 0.5479 0.3739
vn -0.7498 0.3378 0.5689
vn -0.7314 0.3102 0.6073
vn -0.7147 0.3726 0.5919
vn -0.6464 0.7292 -0.2247
vn -0.6462 0.7236 -0.2425
vn -0.6473 0.7228 -0.2421
vn -0.4422 -0.2595 0.8586
vn -0.4358 -0.2633 0.8607
vn -0.4302 -0.2505 0.8673
vn 0.6625 -0.5730 0.4824
vn 0.6800 -0.5431 0.4926
vn 0.6610 -0.5669 0.4916
vn 0.2989 -0.6008 0.7414
vn 0.2959 -0.6074 0.7372
vn 0.3018 -0.6060 0.7360
vn 0.7626 -0.6073 -0.2226
vn 0.7843 -0.5813 -0.2168
vn 0.7618 -0.6118 -0.2132
vn 0.9272 -0.3262 -0.1841
vn 0.9303 -0.3169 -0.1846
vn 0.9298 -0.3264 -0.1702
vn 0.9196 -0.3151 -0.2347
vn 0.9231 -0.3075 -0.2308
vn 0.9203 -0.3157 -0.2312
vn 0.6983 0.5316 -0.4794
vn 0.6902 0.5419 -0.4796
vn 0.7050 0.5374 -0.4628
vn -0.9200 0.3901 0.0385
vn -0.9378 0.3449 0.0394
vn -0.9368 0.3464 0.0497
vn -0.9393 0.2578 0.2265
vn -0.9218 0.2973 0.2489
vn -0.9393 0.2593 0.2246
vn -0.1796 -0.4028 0.8975
vn -0.1339 -0.3770 0.9165
vn -0.1903 -0.3802 0.9051
vn 0.8185 -0.4381 0.3717
vn 0.8259 -0.4149 0.3818
vn 0.8172 -0.4388 0.3737
vn 0.8818 -0.4169 0.2207
vn 0.8928 -0.3933 0.2196
vn 0.8773 -0.4180 0.2358
vn 0.9534 -0.2459 -0.1746
vn 0.9529 -0.2476 -0.1749
vn 0.9525 -0.2483 -0.1763
vn 0.4093 0.6645 -0.6252
vn 0.4088 0.6759 -0.6132
vn 0.4124 0.6608 -0.6271
vn -0.0221 0.8337 -0.5517
vn -0.0203 0.8373 -0.5463
vn -0.0203 0.8347 -0.5504
vn 0.9179 -0.2830 0.2781
vn 0.9218 -0.2640 0.2838
vn 0.9161 -0.2806 0.2864
vn 0.5729 -0.7165 0.3980
vn 0.5778 -0.7141 0.3952
vn 0.5734 -0.7133 0.4030
vn 0.9771 -0.2104 -0.0331
vn 0.9771 -0.2126 -0.0127
vn 0.9733 -0.2256 -0.0414
vn 0.8726 0.3299 -0.3603
vn 0.8752 0.3497 -0.3343
vn 0.8891 0.3145 -0.3326
vn -0.6606 0.7215 -0.2075
vn -0.6688 0.7135 -0.2088
vn -0.6689 0.7221 -0.1763
vn 0.6639 0.3988 -0.6326
vn 0.6631 0.3913 -0.6381
vn 0.6607 0.3943 -0.6388
vn 0.0808 -0.3670 0.9267
vn 0.0472 -0.3340 0.9414
vn 0.0444 -0.3617 0.9312
vn -0.1092 -0.3368 0.9352
vn -0.1194 -0.3151 0.9415
vn -0.1231 -0.3348 0.9342
vn -0.6327 0.7649 -0.1211
vn -0.6370 0.7625 -0.1133
vn -0.6274 0.7703 -0.1143
vn -0.8379 0.5193 -0.1682
vn -0.8402 0.5161 -0.1664
vn -0.8396 0.5194 -0.1591
vn -0.5044 -0.1428 0.8516
vn -0.5028 -0.1476 0.8517
vn -0.4963 -0.1343 0.8577
vn 0.8939 -0.4223 0.1503
vn 0.8928 -0.4243 0.1514
vn 0.8936 -0.4234 0.1491
vn -0.0182 -0.5967 0.8022
vn -0.0174 -0.6022 0.7982
vn -0.0135 -0.6010 0.7991
vn 0.3151 -0.6445 0.6966
vn 0.3094 -0.6610 0.6836
vn 0.3151 -0.6584 0.6835
vn 0.9454 -0.3210 -0.0557
vn 0.9388 -0.3377 -0.0684
vn 0.9395 -0.3356 -0.0687
vn -0.9112 0.1577 0.3807
vn -0.9123 0.1616 0.3763
vn -0.9126 0.1563 0.3778
vn -0.9306 0.3048 0.2027
vn -0.9306 0.3037 0.2042
vn -0.9294 0.3071 0.2048
vn -0.3278 -0.2968 0.8969
vn -0.3281 -0.2995 0.8959
vn -0.3266 -0.2975 0.8971
vn -0.3244 -0.3983 0.8579
vn -0.3231 -0.3987 0.8583
vn -0.3216 -0.3932 0.8614
vn 0.9340 -0.1190 -0.3368
vn 0.9348 -0.1160 -0.3358
vn 0.9356 -0.1158 -0.3336
vn 0.9314 -0.3352 0.1419
vn 0.9308 -0.3381 0.1387
vn 0.9316 -0.3356 0.1392
vn 0.8953 -0.4416 0.0587
vn 0.8955 -0.4413 0.0571
vn 0.8964 -0.4393 0.0584
vn -0.1618 0.4540 -0.8762
vn -0.1580 0.4542 -0.8768
vn -0.1601 0.4512 -0.8780
vn -0.2798 0.7055 -0.6511
vn -0.2774 0.7083 -0.6491
vn -0.2768 0.7067 -0.6512
vn -0.6810 0.6663 -0.3037
vn -0.6796 0.6670 -0.3054
vn -0.6811 0.6645 -0.3074
vn -0.9311 0.2571 0.2590
vn -0.9302 0.2600 0.2589
vn -0.9315 0.2571 0.2574
vn -0.7583 0.6045 -0.2440
vn -0.7592 0.6032 -0.2446
vn -0.7593 0.6039 -0.2424
vn 0.3744 -0.6487 0.6626
vn 0.3753 -0.6463 0.6645
vn 0.3738 -0.6481 0.6635
vn 0.9479 -0.0626 -0.3124
vn 0.9473 -0.0641 -0.3138
vn 0.9474 -0.0626 -0.3138
vn 0.5218 -0.6245 0.5811
vn 0.5223 -0.6256 0.5795
vn 0.5259 -0.6207 0.5815
vn 0.8001 0.1252 -0.5867
vn 0.8006 0.1234 -0.5864
vn 0.7992 0.1234 -0.5882
vn -0.6364 0.6847 -0.3552
vn -0.6383 0.6818 -0.3574
vn -0.6386 0.6829 -0.3547
vn -0.5918 0.6703 -0.4476
vn -0.5938 0.6690 -0.4470
vn -0.5904 0.6753 -0.4420
vn -0.5591 -0.2534 0.7894
vn -0.5568 -0.2529 0.7912
vn -0.5579 -0.2473 0.7922
vn -0.8916 0.4421 0.0984
vn -0.8932 0.4392 0.0967
vn -0.8924 0.4403 0.0991
vn -0.0657 -0.5687 0.8199
vn -0.0669 -0.5716 0.8178
vn -0.0644 -0.5699 0.8192
vn -0.2719 0.7173 -0.6416
vn -0.2694 0.7174 -0.6425
vn -0.2715 0.7160 -0.6431
vn -0.7103 0.3707 0.5984
vn -0.7208 0.3265 0.6114
vn -0.7052 0.3320 0.6264
vn -0.5212 0.8168 -0.2472
vn -0.4975 0.8331 -0.2416
vn -0.5067 0.8241 -0.2532
vn 0.9036 -0.4112 0.1201
vn 0.9036 -0.4107 0.1217
vn 0.9028 -0.4133 0.1193
vn 0.9108 -0.4123 0.0218
vn 0.9100 -0.4141 0.0204
vn 0.9106 -0.4127 0.0201
s 1
f 1//1 2//2 3//3
f 2//4 1//5 4//6
f 5//7 6//8 7//9
f 8//10 9//11 10//12
f 8//13 11//14 12//15
f 13//16 14//17 15//18
f 16//19 17//20 18//21
f 12//22 11//23 19//24
f 20//25 18//26 17//27
f 21//28 22//29 23//30
f 21//31 23//32 24//33
f 25//34 21//35 24//36
f 24//37 23//38 26//39
f 24//40 26//41 9//42
f 27//43 24//44 9//45
f 28//46 8//47 29//48
f 29//49 30//50 28//51
f 12//52 31//53 32//54
f 31//55 22//56 33//57
f 31//58 34//59 32//60
f 35//61 36//62 37//63
f 35//64 37//65 38//66
f 39//67 40//68 41//69
f 41//70 42//71 39//72
f 42//73 5//74 39//75
f 43//76 44//77 45//78
f 43//79 45//80 46//81
f 43//82 6//83 42//84
f 46//85 36//86 47//87
f 48//88 49//89 50//90
f 51//91 48//92 50//93
f 51//94 20//95 52//96
f 52//97 17//98 53//99
f 52//100 48//101 51//102
f 54//103 55//104 56//105
f 54//106 17//107 55//108
f 17//109 54//110 57//111
f 56//112 58//113 54//114
f 58//115 59//116 54//117
f 60//118 61//119 62//120
f 60//121 63//122 64//123
f 65//124 60//125 64//126
f 60//127 66//128 63//129
f 67//130 68//131 69//132
f 67//133 70//134 71//135
f 71//136 70//137 65//138
f 71//139 68//140 67//141
f 3//142 2//143 33//144
f 21//145 33//146 22//147
f 3//148 25//149 27//150
f 27//151 30//152 72//153
f 73//154 32//155 34//156
f 73//157 34//158 1//159
f 35//160 5//161 7//162
f 6//163 46//164 47//165
f 47//166 36//167 7//168
f 48//169 53//170 74//171
f 54//172 15//173 57//174
f 57//175 15//176 14//177
f 74//178 53//179 17//180
f 15//181 59//182 75//183
f 76//184 63//185 66//186
f 68//187 77//188 76//189
f 71//190 64//191 68//192
f 4//6 1//5 34//193
f 23//194 22//195 78//196
f 8//197 10//198 11//199
f 14//200 13//201 74//202
f 75//203 13//16 15//18
f 64//204 77//205 68//206
f 16//207 55//208 17//209
f 16//210 79//211 55//212
f 56//213 79//214 80//215
f 19//216 22//217 31//218
f 27//219 25//220 24//221
f 27//222 9//223 28//224
f 28//225 30//226 27//227
f 28//228 9//229 8//230
f 32//231 8//232 12//233
f 29//234 8//235 32//236
f 31//237 12//238 19//239
f 40//240 35//241 38//242
f 35//243 40//244 39//245
f 42//246 41//247 81//248
f 42//249 81//250 43//251
f 43//252 81//253 44//254
f 43//255 46//256 6//257
f 46//258 45//259 82//260
f 46//261 82//262 36//263
f 59//264 83//265 50//266
f 49//267 59//268 50//269
f 50//270 84//271 51//272
f 51//273 84//274 20//275
f 17//276 52//277 20//278
f 52//279 53//280 48//281
f 56//282 83//283 58//284
f 58//285 83//286 59//287
f 60//288 70//289 61//290
f 60//291 65//292 70//293
f 66//294 60//295 62//296
f 30//297 73//298 72//299
f 85//300 76//301 66//302
f 69//303 76//304 85//305
f 69//306 68//307 76//308
f 21//309 25//310 3//311
f 3//312 33//313 21//314
f 72//315 1//316 3//317
f 72//318 3//319 27//320
f 73//321 29//322 32//323
f 73//324 1//325 72//326
f 48//327 75//328 49//329
f 34//330 33//331 4//332
f 34//333 31//334 33//335
f 4//336 33//337 2//338
f 35//339 39//340 5//341
f 35//342 7//343 36//344
f 5//345 42//346 6//347
f 47//348 7//349 6//350
f 49//351 75//352 59//353
f 48//354 74//355 13//356
f 57//357 14//358 74//359
f 57//360 74//361 17//362
f 15//363 54//364 59//365
f 63//366 77//367 64//368
f 76//369 77//370 63//371
f 71//372 65//373 64//374
f 56//375 55//376 79//377
f 19//378 78//379 22//380
f 30//381 29//382 73//383
f 48//384 13//385 75//386
